<?xml version="1.0" encoding="UTF-8" standalone="no"?>
<svg
   xmlns:dc="http://purl.org/dc/elements/1.1/"
   xmlns:cc="http://creativecommons.org/ns#"
   xmlns:rdf="http://www.w3.org/1999/02/22-rdf-syntax-ns#"
   xmlns:svg="http://www.w3.org/2000/svg"
   xmlns="http://www.w3.org/2000/svg"
   xmlns:sodipodi="http://sodipodi.sourceforge.net/DTD/sodipodi-0.dtd"
   xmlns:inkscape="http://www.inkscape.org/namespaces/inkscape"
   width="210mm"
   height="297mm"
   viewBox="0 0 210 297"
   version="1.1"
   id="svg8"
   inkscape:version="1.0.1 (3bc2e813f5, 2020-09-07)"
   sodipodi:docname="cpp.svg">
  <defs
     id="defs2" />
  <sodipodi:namedview
     id="base"
     pagecolor="#ffffff"
     bordercolor="#666666"
     borderopacity="1.0"
     inkscape:pageopacity="0.0"
     inkscape:pageshadow="2"
     inkscape:zoom="0.35"
     inkscape:cx="-150"
     inkscape:cy="560"
     inkscape:document-units="mm"
     inkscape:current-layer="layer1"
     inkscape:document-rotation="0"
     showgrid="false"
     inkscape:window-width="1920"
     inkscape:window-height="1017"
     inkscape:window-x="-8"
     inkscape:window-y="-8"
     inkscape:window-maximized="1" />
  <metadata
     id="metadata5">
    <rdf:RDF>
      <cc:Work
         rdf:about="">
        <dc:format>image/svg+xml</dc:format>
        <dc:type
           rdf:resource="http://purl.org/dc/dcmitype/StillImage" />
        <dc:title />
      </cc:Work>
    </rdf:RDF>
  </metadata>
  <g
     inkscape:label="Layer 1"
     inkscape:groupmode="layer"
     id="layer1">
    <g
       id="g24"
       style="fill:#000080;fill-opacity:1"
       transform="translate(29.482146,-14.363096)">
      <path
         style="fill:#000080;fill-opacity:1;stroke-width:0.264583"
         d="m 79.0668,253.39436 c 0.402183,-0.0608 0.997496,-0.0592 1.322917,0.004 0.325422,0.0628 -0.0036,0.11255 -0.731242,0.11057 -0.727604,-0.003 -0.993857,-0.0534 -0.591675,-0.1142 z m 3.968751,0 c 0.402182,-0.0608 0.997495,-0.0592 1.322916,0.004 0.325422,0.0628 -0.0036,0.11255 -0.731242,0.11057 -0.727604,-0.003 -0.993857,-0.0534 -0.591674,-0.1142 z M -41.61121,139.01964 c 0,-0.3638 0.06005,-0.51263 0.133453,-0.33073 0.0734,0.18191 0.0734,0.47956 0,0.66146 -0.0734,0.1819 -0.133453,0.0331 -0.133453,-0.33073 z m -0.254778,-5.15937 c 0.0054,-0.43656 0.06469,-0.58313 0.131773,-0.3257 0.06708,0.25744 0.06267,0.61462 -0.0098,0.79375 -0.07248,0.17914 -0.127363,-0.0315 -0.12197,-0.46805 z m 0,-7.67292 c 0.0054,-0.43656 0.06469,-0.58312 0.131773,-0.32569 0.06708,0.25743 0.06267,0.61462 -0.0098,0.79375 -0.07248,0.17913 -0.127363,-0.0315 -0.12197,-0.46806 z m 0.254778,-5.15937 c 0,-0.36381 0.06005,-0.51263 0.133453,-0.33073 0.0734,0.1819 0.0734,0.47955 0,0.66146 -0.0734,0.1819 -0.133453,0.0331 -0.133453,-0.33073 z M -5.801943,42.711309 c 0.26339,-0.291042 0.5384218,-0.529167 0.6111822,-0.529167 0.07276,0 -0.083209,0.238125 -0.3465989,0.529167 -0.2633901,0.291041 -0.5384218,0.529166 -0.6111822,0.529166 -0.07276,0 0.083209,-0.238125 0.3465989,-0.529166 z m 174.723533,0.06614 c -0.32909,-0.419645 -0.31975,-0.429003 0.0999,-0.0999 0.44071,0.345644 0.58089,0.562917 0.36311,0.562917 -0.0549,0 -0.26329,-0.208359 -0.46302,-0.463021 z M 72.332824,6.8118185 c 0.190995,-0.07643 0.4192,-0.067032 0.507119,0.020876 0.08792,0.087918 -0.06835,0.1504526 -0.347266,0.1389644 -0.308226,-0.0127 -0.370919,-0.07539 -0.159853,-0.1598506 z m 17.97513,0.0055 c 0.181901,-0.073398 0.479558,-0.073398 0.661459,0 0.181901,0.073398 0.03307,0.1334532 -0.33073,0.1334532 -0.363802,0 -0.51263,-0.060055 -0.330729,-0.1334532 z M 77.480697,6.5446132 c 0.257432,-0.067082 0.61462,-0.062672 0.79375,0.00982 0.179131,0.072477 -0.03149,0.1273625 -0.468055,0.1219703 -0.436563,-0.0054 -0.583126,-0.064691 -0.325695,-0.1317731 z m 7.672917,0 c 0.257432,-0.067082 0.614619,-0.062672 0.79375,0.00982 0.179131,0.072477 -0.03149,0.1273625 -0.468056,0.1219703 -0.436562,-0.0054 -0.583125,-0.064691 -0.325694,-0.1317731 z"
         id="path32" />
      <path
         style="fill:#000080;fill-opacity:1;stroke-width:0.264583"
         d="m 77.211079,253.40185 c 0.254662,-0.0666 0.67138,-0.0666 0.926042,0 0.254661,0.0665 0.0463,0.121 -0.463021,0.121 -0.509323,0 -0.717682,-0.0545 -0.463021,-0.121 z m 7.9375,0 c 0.254662,-0.0666 0.67138,-0.0666 0.926042,0 0.254661,0.0665 0.0463,0.121 -0.463021,0.121 -0.509323,0 -0.717682,-0.0545 -0.463021,-0.121 z m -12.832292,-0.25744 c 0.181901,-0.0734 0.479558,-0.0734 0.661459,0 0.181901,0.0734 0.03307,0.13346 -0.330729,0.13346 -0.363803,0 -0.512631,-0.0601 -0.33073,-0.13346 z m 17.991667,0 c 0.181901,-0.0734 0.479558,-0.0734 0.661459,0 0.181901,0.0734 0.03307,0.13346 -0.33073,0.13346 -0.363802,0 -0.51263,-0.0601 -0.330729,-0.13346 z m -96.1223457,-35.87424 -1.0458847,-1.12448 1.1244792,1.04587 c 1.045755,0.97266 1.2460632,1.20308 1.0458847,1.20308 -0.043228,0 -0.5492433,-0.50601 -1.1244792,-1.12447 z M 168.69077,217.4686 c 0.49366,-0.50932 0.95708,-0.92604 1.02984,-0.92604 0.0728,0 -0.2716,0.41672 -0.76526,0.92604 -0.49366,0.50933 -0.95708,0.92604 -1.02984,0.92604 -0.0728,0 0.2716,-0.41671 0.76526,-0.92604 z M 76.830741,191.49099 c 0.190994,-0.0764 0.4192,-0.067 0.507118,0.0209 0.08792,0.0879 -0.06835,0.15047 -0.347265,0.13899 -0.308226,-0.0127 -0.37092,-0.0754 -0.159853,-0.15986 z m 9.260416,0 c 0.190995,-0.0764 0.419201,-0.067 0.507119,0.0209 0.08792,0.0879 -0.06835,0.15047 -0.347265,0.13899 -0.308227,-0.0127 -0.37092,-0.0754 -0.159854,-0.15986 z m 118.909893,-43.67038 -0.0624,-8.79383 -8.7974,-0.0734 -8.7974,-0.0734 8.80571,-0.0624 c 6.87713,-0.0488 8.83367,0.0104 8.93344,0.27042 0.0702,0.18308 0.0946,4.20144 0.054,8.92969 l -0.0737,8.59681 z m 17.79151,-0.0697 0.006,-8.86354 8.86355,-0.006 8.86354,-0.005 -8.79383,0.0752 -8.79385,0.0752 -0.0752,8.79383 -0.0752,8.79384 0.006,-8.86354 z m -97.10864,-9.06412 c -0.0703,-0.18309 -0.0963,-4.20145 -0.0578,-8.92969 l 0.0699,-8.59681 8.73125,-0.005 8.73125,-0.005 -8.66511,0.0751 -8.6651,0.0751 v 8.72412 8.72412 l 8.79739,0.0734 8.7974,0.0734 -8.8057,0.0625 c -6.87714,0.0488 -8.83368,-0.0104 -8.93344,-0.27042 z m 39.63341,0.13489 c 2.43747,-0.0437 6.42607,-0.0437 8.86354,0 2.43748,0.0437 0.44318,0.0794 -4.43177,0.0794 -4.87495,0 -6.86924,-0.0357 -4.43177,-0.0794 z m 0,-17.72709 c 2.43747,-0.0437 6.42607,-0.0437 8.86354,0 2.43748,0.0437 0.44318,0.0794 -4.43177,0.0794 -4.87495,0 -6.86924,-0.0357 -4.43177,-0.0794 z m 30.82039,0.002 8.79385,-0.0752 0.0752,-8.79384 0.0752,-8.79383 -0.006,8.86354 -0.006,8.86354 -8.86354,0.006 -8.86355,0.006 8.79383,-0.0752 z M 222.786,120.9602 c -0.0702,-0.18309 -0.0946,-4.20145 -0.054,-8.92969 l 0.0737,-8.59681 0.0623,8.79383 0.0624,8.79383 8.7974,0.0734 8.79739,0.0734 -8.8057,0.0625 c -6.87713,0.0488 -8.83367,-0.0104 -8.93344,-0.27042 z M -6.9925681,43.901934 c 0.3417756,-0.363802 0.6809397,-0.661459 0.7537001,-0.661459 0.07276,0 -0.1473412,0.297657 -0.4891167,0.661459 -0.3417756,0.363802 -0.6809396,0.661458 -0.7537001,0.661458 -0.07276,0 0.1473412,-0.297656 0.4891167,-0.661458 z m 176.8488281,-0.198438 -0.50403,-0.595312 0.59531,0.504028 c 0.55943,0.473663 0.71575,0.686597 0.50403,0.686597 -0.0502,0 -0.31811,-0.267891 -0.59531,-0.595313 z m -1.97927,-1.984375 -0.64143,-0.727604 0.7276,0.641432 c 0.40019,0.35279 0.72761,0.680212 0.72761,0.727604 0,0.207508 -0.21426,0.03862 -0.81378,-0.641432 z M -4.611318,41.520684 c 0.3417755,-0.363802 0.6809396,-0.661459 0.7537,-0.661459 0.07276,0 -0.1473412,0.297657 -0.4891167,0.661459 -0.3417755,0.363802 -0.6809396,0.661458 -0.7537,0.661458 -0.07276,0 0.1473411,-0.297656 0.4891167,-0.661458 z"
         id="path30" />
      <path
         style="fill:#000080;fill-opacity:1;stroke-width:0.264583"
         d="m 76.301574,253.40349 c 0.190995,-0.0764 0.4192,-0.067 0.507119,0.0209 0.08792,0.0879 -0.06835,0.15047 -0.347266,0.13899 -0.308226,-0.0127 -0.370919,-0.0754 -0.159853,-0.15986 z m 10.31875,0 c 0.190995,-0.0764 0.419201,-0.067 0.507119,0.0209 0.08792,0.0879 -0.06835,0.15047 -0.347266,0.13899 -0.308226,-0.0127 -0.370919,-0.0754 -0.159853,-0.15986 z M 217.79643,206.87908 c -15.70223,-8.6446 -28.66866,-15.64384 -28.81432,-15.55382 -0.14562,0.09 -0.19812,0.0558 -0.11668,-0.076 0.0815,-0.13179 -12.01475,-6.93071 -26.88047,-15.1087 -14.8657,-8.178 -39.70872,-21.8417 -55.20669,-30.36378 -15.497972,-8.52209 -28.211693,-15.59398 -28.25272,-15.71532 -0.04102,-0.12134 6.566945,-4.00697 14.684376,-8.63473 8.117434,-4.62776 14.878024,-8.53022 15.023554,-8.67215 0.14552,-0.14193 -0.0331,-0.10449 -0.39688,0.0832 -0.86707,0.44734 -79.323256,45.17318 -80.114469,45.67118 -0.598281,0.37656 -0.625888,0.34223 -1.88446,-2.34369 -12.9626,-27.66351 -3.804809,-60.384496 21.673928,-77.441422 13.31906,-8.916543 29.628365,-12.242863 45.508335,-9.281533 16.041576,2.991469 30.563106,12.531577 39.711586,26.089047 1.26083,1.868461 1.52762,2.477844 1.08482,2.477844 -0.11771,0 -0.44513,0.189717 -0.72761,0.42159 -0.75282,0.617971 -1.1366,0.834702 28.11912,-15.879461 25.48459,-14.559661 26.76636,-15.327313 26.48566,-15.862263 -0.16224,-0.309187 -1.30341,-2.109971 -2.53592,-4.001741 C 172.8556,43.80512 155.47846,28.512597 135.22098,18.741315 122.32801,12.522337 109.00887,8.7574533 93.945975,7.0742349 c -5.523116,-0.6171882 -19.083134,-0.6171882 -24.60625,0 C 40.112786,10.340233 14.574564,22.475626 -5.6653863,42.715574 -25.905334,62.955524 -38.040727,88.493746 -41.306725,117.72068 c -0.617188,5.52312 -0.617188,19.08314 0,24.60626 1.766792,15.81077 6.102641,30.56392 12.823672,43.63381 l 1.82653,3.55192 -28.147088,16.05243 c -15.4809,8.82883 -28.294084,15.99603 -28.473744,15.9271 -0.514702,-0.19751 -1.713577,-2.59329 -2.225977,-4.44831 -0.442325,-1.60131 -0.467362,-6.2915 -0.467362,-87.54925 0,-81.568296 0.02357,-85.943203 0.471948,-87.577081 1.234432,-4.498322 3.935505,-8.419182 7.479916,-10.857799 1.688497,-1.161717 149.97108,-84.153924 151.591888,-84.844392 2.350146,-1.001165 5.452454,-1.47718 8.703837,-1.335505 3.507597,0.152842 5.851977,0.719352 8.433692,2.037971 2.424469,1.238309 147.237333,82.067045 149.020803,83.177445 1.3793,0.85875 4.8948,4.066416 4.8948,4.466175 0,0.126495 0.40587,0.635865 0.90193,1.131932 1.16219,1.162188 2.48492,3.859906 3.01276,6.144565 0.37238,1.611691 0.42492,10.727314 0.50382,87.383229 0.0878,85.27771 0.0862,85.59143 -0.449,87.70937 -0.29543,1.16906 -0.92247,2.92216 -1.39342,3.89577 l -0.8563,1.7702 z m -56.77858,-59.12462 v -8.72768 l 8.7974,-0.0697 8.79739,-0.0697 v -8.86354 -8.86354 l -8.79739,-0.0697 -8.7974,-0.0697 v -8.72768 -8.72768 h -8.86354 -8.86354 v 8.72768 8.72768 l -8.7974,0.0697 -8.79739,0.0697 v 8.86354 8.86354 l 8.79739,0.0697 8.7974,0.0697 v 8.72768 8.72768 h 8.86354 8.86354 z m 61.9125,-0.004 v -8.73125 h 8.73125 8.73125 v -8.99583 -8.99583 h -8.73125 -8.73125 v -8.73125 -8.73125 h -8.99583 -8.99583 v 8.73125 8.73125 h -8.73125 -8.73125 v 8.99583 8.99583 h 8.73125 8.73125 v 8.73125 8.73125 h 8.99583 8.99583 z m -112.7125,-36.12921 c 0,-0.0728 -0.35719,0.0524 -0.79375,0.27817 -0.43656,0.22576 -0.79375,0.47 -0.79375,0.54276 0,0.0728 0.35719,-0.0524 0.79375,-0.27818 0.43656,-0.22575 0.79375,-0.46999 0.79375,-0.54275 z m 1.85208,-1.05833 c 0,-0.0728 -0.35718,0.0524 -0.79375,0.27817 -0.43656,0.22575 -0.79375,0.46999 -0.79375,0.54275 0,0.0728 0.35719,-0.0524 0.79375,-0.27817 0.43657,-0.22575 0.79375,-0.46999 0.79375,-0.54275 z m 1.85209,-1.05834 c 0,-0.0728 -0.35719,0.0524 -0.79375,0.27817 -0.43657,0.22576 -0.79375,0.47 -0.79375,0.54276 0,0.0728 0.35718,-0.0524 0.79375,-0.27817 0.43656,-0.22576 0.79375,-0.47 0.79375,-0.54276 z m 1.85208,-1.05833 c 0,-0.0728 -0.35719,0.0524 -0.79375,0.27817 -0.43656,0.22576 -0.79375,0.47 -0.79375,0.54276 0,0.0728 0.35719,-0.0524 0.79375,-0.27818 0.43656,-0.22575 0.79375,-0.46999 0.79375,-0.54275 z m 1.85208,-1.05833 c 0,-0.0728 -0.35718,0.0524 -0.79375,0.27817 -0.43656,0.22575 -0.79375,0.46999 -0.79375,0.54275 0,0.0728 0.35719,-0.0524 0.79375,-0.27817 0.43657,-0.22575 0.79375,-0.46999 0.79375,-0.54275 z m 1.85209,-1.05834 c 0,-0.0728 -0.35719,0.0524 -0.79375,0.27817 -0.43657,0.22576 -0.79375,0.47 -0.79375,0.54276 0,0.0728 0.35718,-0.0524 0.79375,-0.27817 0.43656,-0.22576 0.79375,-0.47 0.79375,-0.54276 z m 1.85208,-1.05833 c 0,-0.0728 -0.35719,0.0524 -0.79375,0.27817 -0.43656,0.22576 -0.79375,0.47 -0.79375,0.54276 0,0.0728 0.35719,-0.0524 0.79375,-0.27818 0.43656,-0.22575 0.79375,-0.46999 0.79375,-0.54275 z m 1.85208,-1.05833 c 0,-0.0728 -0.35718,0.0524 -0.79375,0.27817 -0.43656,0.22575 -0.79375,0.46999 -0.79375,0.54275 0,0.0728 0.35719,-0.0524 0.79375,-0.27817 0.43657,-0.22575 0.79375,-0.46999 0.79375,-0.54275 z m 1.85209,-1.05834 c 0,-0.0728 -0.35719,0.0524 -0.79375,0.27817 -0.43657,0.22576 -0.79375,0.47 -0.79375,0.54276 0,0.0728 0.35718,-0.0524 0.79375,-0.27817 0.43656,-0.22576 0.79375,-0.47 0.79375,-0.54276 z m 1.85208,-1.05833 c 0,-0.0728 -0.35719,0.0524 -0.79375,0.27817 -0.43656,0.22576 -0.79375,0.47 -0.79375,0.54276 0,0.0728 0.35719,-0.0524 0.79375,-0.27818 0.43656,-0.22575 0.79375,-0.46999 0.79375,-0.54275 z m 1.85208,-1.05833 c 0,-0.0728 -0.35718,0.0524 -0.79375,0.27817 -0.43656,0.22575 -0.79375,0.46999 -0.79375,0.54275 0,0.0728 0.35719,-0.0524 0.79375,-0.27817 0.43657,-0.22575 0.79375,-0.46999 0.79375,-0.54275 z m 1.85209,-1.058338 c 0,-0.07276 -0.35719,0.05242 -0.79375,0.278168 -0.43657,0.22576 -0.79375,0.47 -0.79375,0.54276 0,0.0728 0.35718,-0.0524 0.79375,-0.27817 0.43656,-0.22576 0.79375,-0.47 0.79375,-0.542758 z m 1.85208,-1.058333 c 0,-0.07276 -0.35719,0.05242 -0.79375,0.278172 -0.43656,0.225756 -0.79375,0.469995 -0.79375,0.542756 0,0.07276 0.35719,-0.05242 0.79375,-0.278172 0.43656,-0.225756 0.79375,-0.469996 0.79375,-0.542756 z M -4.1021777,218.98996 l -0.641432,-0.72761 0.7276042,0.64143 c 0.6800559,0.59952 0.8489394,0.81378 0.641432,0.81378 -0.047392,0 -0.374814,-0.32742 -0.7276042,-0.7276 z m 171.2054477,0.0661 c 0.34176,-0.3638 0.68093,-0.66146 0.75369,-0.66146 0.0728,0 -0.14735,0.29766 -0.48911,0.66146 -0.34176,0.36381 -0.68093,0.66146 -0.75369,0.66146 -0.0728,0 0.14735,-0.29765 0.48911,-0.66146 z m 2.64583,-2.59633 c 0,-0.0455 0.38695,-0.43248 0.8599,-0.85989 l 0.85989,-0.77711 -0.7771,0.8599 c -0.72438,0.80155 -0.94269,0.98152 -0.94269,0.7771 z m -177.2908611,-0.9094 -0.641432,-0.7276 0.7276042,0.64143 c 0.6800559,0.59952 0.8489394,0.81378 0.641432,0.81378 -0.047392,0 -0.374814,-0.32742 -0.7276042,-0.72761 z"
         id="path28" />
      <path
         style="fill:#000080;fill-opacity:1;stroke-width:0.264583"
         d="m 77.004175,314.73544 c -1.023303,-0.25177 -2.630646,-0.81965 -3.571875,-1.26195 -1.882921,-0.88482 -147.40092,-82.51119 -150.449605,-84.39269 -2.428473,-1.49874 -5.520129,-4.77012 -6.75835,-7.15124 -1.220423,-2.34688 -1.553565,-3.55849 -0.473853,-1.72334 0.588266,0.99986 0.96225,1.38033 1.275366,1.29749 0.243668,-0.0645 12.230219,-6.84162 26.636781,-15.06035 14.406563,-8.21875 26.981765,-15.38232 27.94489,-15.91905 l 1.75114,-0.97586 1.411586,2.44583 c 11.808003,20.45973 30.2817592,37.82317 51.616013,48.51379 34.716496,17.39646 75.796672,17.39646 110.513172,0 20.85181,-10.44887 39.16013,-27.44552 50.829,-47.18746 0.62516,-1.05767 1.22256,-1.97612 1.32755,-2.04099 0.10501,-0.0649 13.03821,6.95486 28.74044,15.59946 l 28.54955,15.71744 0.85585,-1.7702 c 0.47072,-0.97361 1.08923,-2.66319 1.37448,-3.75459 0.28527,-1.09141 0.52522,-1.74387 0.53321,-1.44989 0.0283,1.03851 -1.09201,4.50704 -2.03596,6.3034 -1.25545,2.38911 -4.35476,5.66465 -6.77056,7.15556 -3.38799,2.09089 -148.682183,83.56571 -150.590358,84.44468 -3.701299,1.70495 -8.744861,2.18514 -12.708467,1.20996 z M -86.061211,213.89673 c 0,-0.3638 0.06006,-0.51263 0.133453,-0.33073 0.0734,0.1819 0.0734,0.47956 0,0.66146 -0.0734,0.1819 -0.133453,0.0331 -0.133453,-0.33073 z M 249.18983,131.05592 c -0.0361,-45.926251 -0.12015,-84.44297 -0.18669,-85.592712 l -0.12097,-2.090441 0.25368,1.800587 c 0.15867,1.126279 0.22857,33.180262 0.18669,85.592706 l -0.067,83.79213 z M 76.748058,191.50885 c -3.12852,-0.3275 -7.196259,-1.00063 -9.625126,-1.59271 -15.950145,-3.88819 -29.765589,-14.056 -38.320354,-28.20281 -1.259742,-2.08321 -1.568579,-2.78538 -1.322916,-3.00778 0.244684,-0.22152 79.531258,-45.4727 80.753818,-46.08859 0.17639,-0.0889 0.17639,-0.0451 0,0.1312 -0.14553,0.14546 -6.90232,4.04866 -15.015109,8.67376 -8.112787,4.6251 -14.750521,8.49496 -14.750521,8.59967 0,0.10472 12.473387,7.04972 27.71864,15.43334 15.24525,8.38361 27.92407,15.39573 28.17515,15.58247 0.41677,0.30997 0.28977,0.58521 -1.45874,3.16134 -9.96781,14.68588 -24.87354,24.14154 -42.264217,26.81089 -2.663115,0.40879 -11.664397,0.73227 -13.890625,0.49922 z m 31.882292,-79.06624 c 0,-0.0728 0.35719,-0.317 0.79375,-0.54276 0.43656,-0.22575 0.79375,-0.35093 0.79375,-0.27817 0,0.0728 -0.35719,0.317 -0.79375,0.54275 -0.43656,0.22576 -0.79375,0.35094 -0.79375,0.27818 z m 1.85208,-1.05834 c 0,-0.0728 0.35719,-0.317 0.79375,-0.54275 0.43657,-0.22576 0.79375,-0.35093 0.79375,-0.27817 0,0.0728 -0.35718,0.317 -0.79375,0.54275 -0.43656,0.22576 -0.79375,0.35093 -0.79375,0.27817 z m 1.85209,-1.05833 c 0,-0.0728 0.35718,-0.317 0.79375,-0.54276 0.43656,-0.22575 0.79375,-0.35093 0.79375,-0.27817 0,0.0728 -0.35719,0.317 -0.79375,0.54276 -0.43657,0.22575 -0.79375,0.35093 -0.79375,0.27817 z m 1.85208,-1.05833 c 0,-0.0728 0.35719,-0.317 0.79375,-0.54276 0.43656,-0.22575 0.79375,-0.35093 0.79375,-0.27817 0,0.0728 -0.35719,0.317 -0.79375,0.54275 -0.43656,0.22576 -0.79375,0.35094 -0.79375,0.27818 z m 1.85208,-1.05834 c 0,-0.0728 0.35719,-0.317 0.79375,-0.54275 0.43657,-0.22576 0.79375,-0.35093 0.79375,-0.27817 0,0.0728 -0.35718,0.317 -0.79375,0.54275 -0.43656,0.22576 -0.79375,0.35093 -0.79375,0.27817 z m 1.85209,-1.05833 c 0,-0.0728 0.35718,-0.317 0.79375,-0.54276 0.43656,-0.22575 0.79375,-0.35093 0.79375,-0.27817 0,0.0728 -0.35719,0.317 -0.79375,0.54276 -0.43657,0.22575 -0.79375,0.35093 -0.79375,0.27817 z m 1.85208,-1.05833 c 0,-0.0728 0.35719,-0.317 0.79375,-0.54276 0.43656,-0.22575 0.79375,-0.35093 0.79375,-0.27817 0,0.0728 -0.35719,0.317 -0.79375,0.54275 -0.43656,0.22576 -0.79375,0.35094 -0.79375,0.27818 z m 1.85208,-1.05834 c 0,-0.0728 0.35719,-0.317 0.79375,-0.54275 0.43657,-0.22576 0.79375,-0.35093 0.79375,-0.27817 0,0.0728 -0.35718,0.317 -0.79375,0.54275 -0.43656,0.22576 -0.79375,0.35093 -0.79375,0.27817 z m 1.85209,-1.05833 c 0,-0.0728 0.35718,-0.317 0.79375,-0.54276 0.43656,-0.22575 0.79375,-0.35093 0.79375,-0.27817 0,0.0728 -0.35719,0.317 -0.79375,0.54276 -0.43657,0.22575 -0.79375,0.35093 -0.79375,0.27817 z m 1.85208,-1.05833 c 0,-0.0728 0.35719,-0.317 0.79375,-0.54276 0.43656,-0.22575 0.79375,-0.35093 0.79375,-0.27817 0,0.0728 -0.35719,0.317 -0.79375,0.54275 -0.43656,0.22576 -0.79375,0.35094 -0.79375,0.27818 z m 1.85208,-1.05834 c 0,-0.0728 0.35719,-0.317 0.79375,-0.54275 0.43657,-0.22576 0.79375,-0.35093 0.79375,-0.27817 0,0.0728 -0.35718,0.317 -0.79375,0.54275 -0.43656,0.22576 -0.79375,0.35093 -0.79375,0.27817 z m 1.85209,-1.05833 c 0,-0.0728 0.35718,-0.317 0.79375,-0.54276 0.43656,-0.22575 0.79375,-0.350928 0.79375,-0.278168 0,0.07276 -0.35719,0.316998 -0.79375,0.542758 -0.43657,0.22575 -0.79375,0.35093 -0.79375,0.27817 z m 1.85208,-1.058333 c 0,-0.07276 0.35719,-0.317 0.79375,-0.542756 0.43656,-0.225756 0.79375,-0.350933 0.79375,-0.278172 0,0.07276 -0.35719,0.317 -0.79375,0.542756 -0.43656,0.225755 -0.79375,0.350932 -0.79375,0.278172 z m 1.85208,-1.058333 c 0,-0.07276 0.35719,-0.317 0.79375,-0.542756 0.43657,-0.225756 0.79375,-0.350933 0.79375,-0.278173 0,0.07276 -0.35718,0.317 -0.79375,0.542756 -0.43656,0.225756 -0.79375,0.350933 -0.79375,0.278173 z M 248.61581,42.821553 c 0.0127,-0.308227 0.0754,-0.37092 0.15986,-0.159854 0.0764,0.190995 0.0671,0.419201 -0.0209,0.507119 -0.0879,0.08792 -0.15047,-0.06835 -0.13898,-0.347265 z"
         id="path26" />
    </g>
  </g>
</svg>
